<?xml version="1.0" encoding="UTF-8" standalone="no"?>
<!DOCTYPE svg PUBLIC "-//W3C//DTD SVG 1.1//EN"
 "http://www.w3.org/Graphics/SVG/1.1/DTD/svg11.dtd">
<!-- Generated by graphviz version 2.49.3 (20211023.0002)
 -->
<!-- Pages: 1 -->
<svg width="494pt" height="404pt"
 viewBox="0.00 0.00 494.00 404.00" xmlns="http://www.w3.org/2000/svg" xmlns:xlink="http://www.w3.org/1999/xlink">
<g id="graph0" class="graph" transform="scale(1 1) rotate(0) translate(4 400)">
<polygon fill="white" stroke="transparent" points="-4,4 -4,-400 490,-400 490,4 -4,4"/>
<!-- 0 -->
<g id="node1" class="node">
<title>0</title>
<ellipse fill="none" stroke="black" cx="135" cy="-378" rx="27" ry="18"/>
<text text-anchor="middle" x="135" y="-374.3" font-family="Times,serif" font-size="14.00">e</text>
</g>
<!-- 1 -->
<g id="node2" class="node">
<title>1</title>
<ellipse fill="none" stroke="black" cx="99" cy="-306" rx="27" ry="18"/>
<text text-anchor="middle" x="99" y="-302.3" font-family="Times,serif" font-size="14.00">t</text>
</g>
<!-- 0&#45;&gt;1 -->
<g id="edge1" class="edge">
<title>0&#45;&gt;1</title>
<path fill="none" stroke="black" d="M126.65,-360.76C122.29,-352.28 116.85,-341.71 111.96,-332.2"/>
<polygon fill="black" stroke="black" points="114.99,-330.44 107.3,-323.15 108.77,-333.64 114.99,-330.44"/>
</g>
<!-- 7 -->
<g id="node6" class="node">
<title>7</title>
<ellipse fill="none" stroke="black" cx="207" cy="-306" rx="27" ry="18"/>
<text text-anchor="middle" x="207" y="-302.3" font-family="Times,serif" font-size="14.00">ep</text>
</g>
<!-- 0&#45;&gt;7 -->
<g id="edge5" class="edge">
<title>0&#45;&gt;7</title>
<path fill="none" stroke="black" d="M149.57,-362.83C159.75,-352.94 173.52,-339.55 185.03,-328.36"/>
<polygon fill="black" stroke="black" points="187.47,-330.87 192.2,-321.38 182.59,-325.85 187.47,-330.87"/>
</g>
<!-- 2 -->
<g id="node3" class="node">
<title>2</title>
<ellipse fill="none" stroke="black" cx="27" cy="-234" rx="27" ry="18"/>
<text text-anchor="middle" x="27" y="-230.3" font-family="Times,serif" font-size="14.00">f</text>
</g>
<!-- 1&#45;&gt;2 -->
<g id="edge2" class="edge">
<title>1&#45;&gt;2</title>
<path fill="none" stroke="black" d="M84.43,-290.83C74.25,-280.94 60.48,-267.55 48.97,-256.36"/>
<polygon fill="black" stroke="black" points="51.41,-253.85 41.8,-249.38 46.53,-258.87 51.41,-253.85"/>
</g>
<!-- 5 -->
<g id="node5" class="node">
<title>5</title>
<ellipse fill="none" stroke="black" cx="99" cy="-234" rx="27" ry="18"/>
<text text-anchor="middle" x="99" y="-230.3" font-family="Times,serif" font-size="14.00">tp</text>
</g>
<!-- 1&#45;&gt;5 -->
<g id="edge4" class="edge">
<title>1&#45;&gt;5</title>
<path fill="none" stroke="black" d="M99,-287.7C99,-279.98 99,-270.71 99,-262.11"/>
<polygon fill="black" stroke="black" points="102.5,-262.1 99,-252.1 95.5,-262.1 102.5,-262.1"/>
</g>
<!-- 3 -->
<g id="node4" class="node">
<title>3</title>
<ellipse fill="none" stroke="black" cx="27" cy="-162" rx="27" ry="18"/>
<text text-anchor="middle" x="27" y="-158.3" font-family="Times,serif" font-size="14.00">10</text>
</g>
<!-- 2&#45;&gt;3 -->
<g id="edge3" class="edge">
<title>2&#45;&gt;3</title>
<path fill="none" stroke="black" d="M27,-215.7C27,-207.98 27,-198.71 27,-190.11"/>
<polygon fill="black" stroke="black" points="30.5,-190.1 27,-180.1 23.5,-190.1 30.5,-190.1"/>
</g>
<!-- 8 -->
<g id="node7" class="node">
<title>8</title>
<ellipse fill="none" stroke="black" cx="171" cy="-234" rx="27" ry="18"/>
<text text-anchor="middle" x="171" y="-230.3" font-family="Times,serif" font-size="14.00">+</text>
</g>
<!-- 7&#45;&gt;8 -->
<g id="edge6" class="edge">
<title>7&#45;&gt;8</title>
<path fill="none" stroke="black" d="M198.65,-288.76C194.29,-280.28 188.85,-269.71 183.96,-260.2"/>
<polygon fill="black" stroke="black" points="186.99,-258.44 179.3,-251.15 180.77,-261.64 186.99,-258.44"/>
</g>
<!-- 10 -->
<g id="node8" class="node">
<title>10</title>
<ellipse fill="none" stroke="black" cx="243" cy="-234" rx="27" ry="18"/>
<text text-anchor="middle" x="243" y="-230.3" font-family="Times,serif" font-size="14.00">t</text>
</g>
<!-- 7&#45;&gt;10 -->
<g id="edge7" class="edge">
<title>7&#45;&gt;10</title>
<path fill="none" stroke="black" d="M215.35,-288.76C219.71,-280.28 225.15,-269.71 230.04,-260.2"/>
<polygon fill="black" stroke="black" points="233.23,-261.64 234.7,-251.15 227.01,-258.44 233.23,-261.64"/>
</g>
<!-- 22 -->
<g id="node16" class="node">
<title>22</title>
<ellipse fill="none" stroke="black" cx="351" cy="-234" rx="27" ry="18"/>
<text text-anchor="middle" x="351" y="-230.3" font-family="Times,serif" font-size="14.00">ep</text>
</g>
<!-- 7&#45;&gt;22 -->
<g id="edge15" class="edge">
<title>7&#45;&gt;22</title>
<path fill="none" stroke="black" d="M228.25,-294.67C252.6,-282.83 292.72,-263.33 320.43,-249.86"/>
<polygon fill="black" stroke="black" points="322.2,-252.89 329.67,-245.37 319.14,-246.6 322.2,-252.89"/>
</g>
<!-- 11 -->
<g id="node9" class="node">
<title>11</title>
<ellipse fill="none" stroke="black" cx="135" cy="-162" rx="27" ry="18"/>
<text text-anchor="middle" x="135" y="-158.3" font-family="Times,serif" font-size="14.00">f</text>
</g>
<!-- 10&#45;&gt;11 -->
<g id="edge8" class="edge">
<title>10&#45;&gt;11</title>
<path fill="none" stroke="black" d="M224.19,-220.81C207,-209.67 181.38,-193.06 162.01,-180.5"/>
<polygon fill="black" stroke="black" points="163.89,-177.56 153.6,-175.05 160.08,-183.43 163.89,-177.56"/>
</g>
<!-- 14 -->
<g id="node11" class="node">
<title>14</title>
<ellipse fill="none" stroke="black" cx="243" cy="-162" rx="27" ry="18"/>
<text text-anchor="middle" x="243" y="-158.3" font-family="Times,serif" font-size="14.00">tp</text>
</g>
<!-- 10&#45;&gt;14 -->
<g id="edge10" class="edge">
<title>10&#45;&gt;14</title>
<path fill="none" stroke="black" d="M243,-215.7C243,-207.98 243,-198.71 243,-190.11"/>
<polygon fill="black" stroke="black" points="246.5,-190.1 243,-180.1 239.5,-190.1 246.5,-190.1"/>
</g>
<!-- 12 -->
<g id="node10" class="node">
<title>12</title>
<ellipse fill="none" stroke="black" cx="99" cy="-90" rx="27" ry="18"/>
<text text-anchor="middle" x="99" y="-86.3" font-family="Times,serif" font-size="14.00">3</text>
</g>
<!-- 11&#45;&gt;12 -->
<g id="edge9" class="edge">
<title>11&#45;&gt;12</title>
<path fill="none" stroke="black" d="M126.65,-144.76C122.29,-136.28 116.85,-125.71 111.96,-116.2"/>
<polygon fill="black" stroke="black" points="114.99,-114.44 107.3,-107.15 108.77,-117.64 114.99,-114.44"/>
</g>
<!-- 15 -->
<g id="node12" class="node">
<title>15</title>
<ellipse fill="none" stroke="black" cx="171" cy="-90" rx="27" ry="18"/>
<text text-anchor="middle" x="171" y="-86.3" font-family="Times,serif" font-size="14.00">*</text>
</g>
<!-- 14&#45;&gt;15 -->
<g id="edge11" class="edge">
<title>14&#45;&gt;15</title>
<path fill="none" stroke="black" d="M228.43,-146.83C218.25,-136.94 204.48,-123.55 192.97,-112.36"/>
<polygon fill="black" stroke="black" points="195.41,-109.85 185.8,-105.38 190.53,-114.87 195.41,-109.85"/>
</g>
<!-- 17 -->
<g id="node13" class="node">
<title>17</title>
<ellipse fill="none" stroke="black" cx="243" cy="-90" rx="27" ry="18"/>
<text text-anchor="middle" x="243" y="-86.3" font-family="Times,serif" font-size="14.00">f</text>
</g>
<!-- 14&#45;&gt;17 -->
<g id="edge12" class="edge">
<title>14&#45;&gt;17</title>
<path fill="none" stroke="black" d="M243,-143.7C243,-135.98 243,-126.71 243,-118.11"/>
<polygon fill="black" stroke="black" points="246.5,-118.1 243,-108.1 239.5,-118.1 246.5,-118.1"/>
</g>
<!-- 20 -->
<g id="node15" class="node">
<title>20</title>
<ellipse fill="none" stroke="black" cx="315" cy="-90" rx="27" ry="18"/>
<text text-anchor="middle" x="315" y="-86.3" font-family="Times,serif" font-size="14.00">tp</text>
</g>
<!-- 14&#45;&gt;20 -->
<g id="edge14" class="edge">
<title>14&#45;&gt;20</title>
<path fill="none" stroke="black" d="M257.57,-146.83C267.75,-136.94 281.52,-123.55 293.03,-112.36"/>
<polygon fill="black" stroke="black" points="295.47,-114.87 300.2,-105.38 290.59,-109.85 295.47,-114.87"/>
</g>
<!-- 18 -->
<g id="node14" class="node">
<title>18</title>
<ellipse fill="none" stroke="black" cx="243" cy="-18" rx="27" ry="18"/>
<text text-anchor="middle" x="243" y="-14.3" font-family="Times,serif" font-size="14.00">10</text>
</g>
<!-- 17&#45;&gt;18 -->
<g id="edge13" class="edge">
<title>17&#45;&gt;18</title>
<path fill="none" stroke="black" d="M243,-71.7C243,-63.98 243,-54.71 243,-46.11"/>
<polygon fill="black" stroke="black" points="246.5,-46.1 243,-36.1 239.5,-46.1 246.5,-46.1"/>
</g>
<!-- 23 -->
<g id="node17" class="node">
<title>23</title>
<ellipse fill="none" stroke="black" cx="315" cy="-162" rx="27" ry="18"/>
<text text-anchor="middle" x="315" y="-158.3" font-family="Times,serif" font-size="14.00">&#45;</text>
</g>
<!-- 22&#45;&gt;23 -->
<g id="edge16" class="edge">
<title>22&#45;&gt;23</title>
<path fill="none" stroke="black" d="M342.65,-216.76C338.29,-208.28 332.85,-197.71 327.96,-188.2"/>
<polygon fill="black" stroke="black" points="330.99,-186.44 323.3,-179.15 324.77,-189.64 330.99,-186.44"/>
</g>
<!-- 25 -->
<g id="node18" class="node">
<title>25</title>
<ellipse fill="none" stroke="black" cx="387" cy="-162" rx="27" ry="18"/>
<text text-anchor="middle" x="387" y="-158.3" font-family="Times,serif" font-size="14.00">t</text>
</g>
<!-- 22&#45;&gt;25 -->
<g id="edge17" class="edge">
<title>22&#45;&gt;25</title>
<path fill="none" stroke="black" d="M359.35,-216.76C363.71,-208.28 369.15,-197.71 374.04,-188.2"/>
<polygon fill="black" stroke="black" points="377.23,-189.64 378.7,-179.15 371.01,-186.44 377.23,-189.64"/>
</g>
<!-- 31 -->
<g id="node22" class="node">
<title>31</title>
<ellipse fill="none" stroke="black" cx="459" cy="-162" rx="27" ry="18"/>
<text text-anchor="middle" x="459" y="-158.3" font-family="Times,serif" font-size="14.00">ep</text>
</g>
<!-- 22&#45;&gt;31 -->
<g id="edge21" class="edge">
<title>22&#45;&gt;31</title>
<path fill="none" stroke="black" d="M369.81,-220.81C387,-209.67 412.62,-193.06 431.99,-180.5"/>
<polygon fill="black" stroke="black" points="433.92,-183.43 440.4,-175.05 430.11,-177.56 433.92,-183.43"/>
</g>
<!-- 26 -->
<g id="node19" class="node">
<title>26</title>
<ellipse fill="none" stroke="black" cx="387" cy="-90" rx="27" ry="18"/>
<text text-anchor="middle" x="387" y="-86.3" font-family="Times,serif" font-size="14.00">f</text>
</g>
<!-- 25&#45;&gt;26 -->
<g id="edge18" class="edge">
<title>25&#45;&gt;26</title>
<path fill="none" stroke="black" d="M387,-143.7C387,-135.98 387,-126.71 387,-118.11"/>
<polygon fill="black" stroke="black" points="390.5,-118.1 387,-108.1 383.5,-118.1 390.5,-118.1"/>
</g>
<!-- 29 -->
<g id="node21" class="node">
<title>29</title>
<ellipse fill="none" stroke="black" cx="459" cy="-90" rx="27" ry="18"/>
<text text-anchor="middle" x="459" y="-86.3" font-family="Times,serif" font-size="14.00">tp</text>
</g>
<!-- 25&#45;&gt;29 -->
<g id="edge20" class="edge">
<title>25&#45;&gt;29</title>
<path fill="none" stroke="black" d="M401.57,-146.83C411.75,-136.94 425.52,-123.55 437.03,-112.36"/>
<polygon fill="black" stroke="black" points="439.47,-114.87 444.2,-105.38 434.59,-109.85 439.47,-114.87"/>
</g>
<!-- 27 -->
<g id="node20" class="node">
<title>27</title>
<ellipse fill="none" stroke="black" cx="387" cy="-18" rx="27" ry="18"/>
<text text-anchor="middle" x="387" y="-14.3" font-family="Times,serif" font-size="14.00">1</text>
</g>
<!-- 26&#45;&gt;27 -->
<g id="edge19" class="edge">
<title>26&#45;&gt;27</title>
<path fill="none" stroke="black" d="M387,-71.7C387,-63.98 387,-54.71 387,-46.11"/>
<polygon fill="black" stroke="black" points="390.5,-46.1 387,-36.1 383.5,-46.1 390.5,-46.1"/>
</g>
</g>
</svg>
