<?xml version="1.0" encoding="UTF-8" standalone="no"?>
<!DOCTYPE svg PUBLIC "-//W3C//DTD SVG 1.1//EN"
 "http://www.w3.org/Graphics/SVG/1.1/DTD/svg11.dtd">
<!-- Generated by graphviz version 2.49.3 (20211023.0002)
 -->
<!-- Pages: 1 -->
<svg width="350pt" height="476pt"
 viewBox="0.00 0.00 350.00 476.00" xmlns="http://www.w3.org/2000/svg" xmlns:xlink="http://www.w3.org/1999/xlink">
<g id="graph0" class="graph" transform="scale(1 1) rotate(0) translate(4 472)">
<polygon fill="white" stroke="transparent" points="-4,4 -4,-472 346,-472 346,4 -4,4"/>
<!-- 0 -->
<g id="node1" class="node">
<title>0</title>
<ellipse fill="none" stroke="black" cx="171" cy="-450" rx="27" ry="18"/>
<text text-anchor="middle" x="171" y="-446.3" font-family="Times,serif" font-size="14.00">e</text>
</g>
<!-- 33 -->
<g id="node2" class="node">
<title>33</title>
<ellipse fill="none" stroke="black" cx="135" cy="-378" rx="27" ry="18"/>
<text text-anchor="middle" x="135" y="-374.3" font-family="Times,serif" font-size="14.00">t</text>
</g>
<!-- 0&#45;&gt;33 -->
<g id="edge1" class="edge">
<title>0&#45;&gt;33</title>
<path fill="none" stroke="black" d="M162.65,-432.76C158.29,-424.28 152.85,-413.71 147.96,-404.2"/>
<polygon fill="black" stroke="black" points="150.99,-402.44 143.3,-395.15 144.77,-405.64 150.99,-402.44"/>
</g>
<!-- 58 -->
<g id="node18" class="node">
<title>58</title>
<ellipse fill="none" stroke="black" cx="207" cy="-378" rx="27" ry="18"/>
<text text-anchor="middle" x="207" y="-374.3" font-family="Times,serif" font-size="14.00">x</text>
</g>
<!-- 0&#45;&gt;58 -->
<g id="edge17" class="edge">
<title>0&#45;&gt;58</title>
<path fill="none" stroke="black" d="M179.35,-432.76C183.71,-424.28 189.15,-413.71 194.04,-404.2"/>
<polygon fill="black" stroke="black" points="197.23,-405.64 198.7,-395.15 191.01,-402.44 197.23,-405.64"/>
</g>
<!-- 34 -->
<g id="node3" class="node">
<title>34</title>
<ellipse fill="none" stroke="black" cx="99" cy="-306" rx="27" ry="18"/>
<text text-anchor="middle" x="99" y="-302.3" font-family="Times,serif" font-size="14.00">m</text>
</g>
<!-- 33&#45;&gt;34 -->
<g id="edge2" class="edge">
<title>33&#45;&gt;34</title>
<path fill="none" stroke="black" d="M126.65,-360.76C122.29,-352.28 116.85,-341.71 111.96,-332.2"/>
<polygon fill="black" stroke="black" points="114.99,-330.44 107.3,-323.15 108.77,-333.64 114.99,-330.44"/>
</g>
<!-- 42 -->
<g id="node8" class="node">
<title>42</title>
<ellipse fill="none" stroke="black" cx="207" cy="-306" rx="27" ry="18"/>
<text text-anchor="middle" x="207" y="-302.3" font-family="Times,serif" font-size="14.00">z</text>
</g>
<!-- 33&#45;&gt;42 -->
<g id="edge7" class="edge">
<title>33&#45;&gt;42</title>
<path fill="none" stroke="black" d="M149.57,-362.83C159.75,-352.94 173.52,-339.55 185.03,-328.36"/>
<polygon fill="black" stroke="black" points="187.47,-330.87 192.2,-321.38 182.59,-325.85 187.47,-330.87"/>
</g>
<!-- 35 -->
<g id="node4" class="node">
<title>35</title>
<ellipse fill="none" stroke="black" cx="27" cy="-234" rx="27" ry="18"/>
<text text-anchor="middle" x="27" y="-230.3" font-family="Times,serif" font-size="14.00">g</text>
</g>
<!-- 34&#45;&gt;35 -->
<g id="edge3" class="edge">
<title>34&#45;&gt;35</title>
<path fill="none" stroke="black" d="M84.43,-290.83C74.25,-280.94 60.48,-267.55 48.97,-256.36"/>
<polygon fill="black" stroke="black" points="51.41,-253.85 41.8,-249.38 46.53,-258.87 51.41,-253.85"/>
</g>
<!-- 40 -->
<g id="node7" class="node">
<title>40</title>
<ellipse fill="none" stroke="black" cx="99" cy="-234" rx="27" ry="18"/>
<text text-anchor="middle" x="99" y="-230.3" font-family="Times,serif" font-size="14.00">y</text>
</g>
<!-- 34&#45;&gt;40 -->
<g id="edge6" class="edge">
<title>34&#45;&gt;40</title>
<path fill="none" stroke="black" d="M99,-287.7C99,-279.98 99,-270.71 99,-262.11"/>
<polygon fill="black" stroke="black" points="102.5,-262.1 99,-252.1 95.5,-262.1 102.5,-262.1"/>
</g>
<!-- 36 -->
<g id="node5" class="node">
<title>36</title>
<ellipse fill="none" stroke="black" cx="27" cy="-162" rx="27" ry="18"/>
<text text-anchor="middle" x="27" y="-158.3" font-family="Times,serif" font-size="14.00">a</text>
</g>
<!-- 35&#45;&gt;36 -->
<g id="edge4" class="edge">
<title>35&#45;&gt;36</title>
<path fill="none" stroke="black" d="M27,-215.7C27,-207.98 27,-198.71 27,-190.11"/>
<polygon fill="black" stroke="black" points="30.5,-190.1 27,-180.1 23.5,-190.1 30.5,-190.1"/>
</g>
<!-- 38 -->
<g id="node6" class="node">
<title>38</title>
<ellipse fill="none" stroke="black" cx="99" cy="-162" rx="27" ry="18"/>
<text text-anchor="middle" x="99" y="-158.3" font-family="Times,serif" font-size="14.00">k</text>
</g>
<!-- 35&#45;&gt;38 -->
<g id="edge5" class="edge">
<title>35&#45;&gt;38</title>
<path fill="none" stroke="black" d="M41.57,-218.83C51.75,-208.94 65.52,-195.55 77.03,-184.36"/>
<polygon fill="black" stroke="black" points="79.47,-186.87 84.2,-177.38 74.59,-181.85 79.47,-186.87"/>
</g>
<!-- 43 -->
<g id="node9" class="node">
<title>43</title>
<ellipse fill="none" stroke="black" cx="171" cy="-234" rx="27" ry="18"/>
<text text-anchor="middle" x="171" y="-230.3" font-family="Times,serif" font-size="14.00">or</text>
</g>
<!-- 42&#45;&gt;43 -->
<g id="edge8" class="edge">
<title>42&#45;&gt;43</title>
<path fill="none" stroke="black" d="M198.65,-288.76C194.29,-280.28 188.85,-269.71 183.96,-260.2"/>
<polygon fill="black" stroke="black" points="186.99,-258.44 179.3,-251.15 180.77,-261.64 186.99,-258.44"/>
</g>
<!-- 45 -->
<g id="node10" class="node">
<title>45</title>
<ellipse fill="none" stroke="black" cx="243" cy="-234" rx="27" ry="18"/>
<text text-anchor="middle" x="243" y="-230.3" font-family="Times,serif" font-size="14.00">m</text>
</g>
<!-- 42&#45;&gt;45 -->
<g id="edge9" class="edge">
<title>42&#45;&gt;45</title>
<path fill="none" stroke="black" d="M215.35,-288.76C219.71,-280.28 225.15,-269.71 230.04,-260.2"/>
<polygon fill="black" stroke="black" points="233.23,-261.64 234.7,-251.15 227.01,-258.44 233.23,-261.64"/>
</g>
<!-- 56 -->
<g id="node17" class="node">
<title>56</title>
<ellipse fill="none" stroke="black" cx="315" cy="-234" rx="27" ry="18"/>
<text text-anchor="middle" x="315" y="-230.3" font-family="Times,serif" font-size="14.00">z</text>
</g>
<!-- 42&#45;&gt;56 -->
<g id="edge16" class="edge">
<title>42&#45;&gt;56</title>
<path fill="none" stroke="black" d="M225.81,-292.81C243,-281.67 268.62,-265.06 287.99,-252.5"/>
<polygon fill="black" stroke="black" points="289.92,-255.43 296.4,-247.05 286.11,-249.56 289.92,-255.43"/>
</g>
<!-- 46 -->
<g id="node11" class="node">
<title>46</title>
<ellipse fill="none" stroke="black" cx="207" cy="-162" rx="27" ry="18"/>
<text text-anchor="middle" x="207" y="-158.3" font-family="Times,serif" font-size="14.00">g</text>
</g>
<!-- 45&#45;&gt;46 -->
<g id="edge10" class="edge">
<title>45&#45;&gt;46</title>
<path fill="none" stroke="black" d="M234.65,-216.76C230.29,-208.28 224.85,-197.71 219.96,-188.2"/>
<polygon fill="black" stroke="black" points="222.99,-186.44 215.3,-179.15 216.77,-189.64 222.99,-186.44"/>
</g>
<!-- 54 -->
<g id="node16" class="node">
<title>54</title>
<ellipse fill="none" stroke="black" cx="279" cy="-162" rx="27" ry="18"/>
<text text-anchor="middle" x="279" y="-158.3" font-family="Times,serif" font-size="14.00">y</text>
</g>
<!-- 45&#45;&gt;54 -->
<g id="edge15" class="edge">
<title>45&#45;&gt;54</title>
<path fill="none" stroke="black" d="M251.35,-216.76C255.71,-208.28 261.15,-197.71 266.04,-188.2"/>
<polygon fill="black" stroke="black" points="269.23,-189.64 270.7,-179.15 263.01,-186.44 269.23,-189.64"/>
</g>
<!-- 47 -->
<g id="node12" class="node">
<title>47</title>
<ellipse fill="none" stroke="black" cx="171" cy="-90" rx="27" ry="18"/>
<text text-anchor="middle" x="171" y="-86.3" font-family="Times,serif" font-size="14.00">not</text>
</g>
<!-- 46&#45;&gt;47 -->
<g id="edge11" class="edge">
<title>46&#45;&gt;47</title>
<path fill="none" stroke="black" d="M198.65,-144.76C194.29,-136.28 188.85,-125.71 183.96,-116.2"/>
<polygon fill="black" stroke="black" points="186.99,-114.44 179.3,-107.15 180.77,-117.64 186.99,-114.44"/>
</g>
<!-- 49 -->
<g id="node13" class="node">
<title>49</title>
<ellipse fill="none" stroke="black" cx="243" cy="-90" rx="27" ry="18"/>
<text text-anchor="middle" x="243" y="-86.3" font-family="Times,serif" font-size="14.00">g</text>
</g>
<!-- 46&#45;&gt;49 -->
<g id="edge12" class="edge">
<title>46&#45;&gt;49</title>
<path fill="none" stroke="black" d="M215.35,-144.76C219.71,-136.28 225.15,-125.71 230.04,-116.2"/>
<polygon fill="black" stroke="black" points="233.23,-117.64 234.7,-107.15 227.01,-114.44 233.23,-117.64"/>
</g>
<!-- 50 -->
<g id="node14" class="node">
<title>50</title>
<ellipse fill="none" stroke="black" cx="207" cy="-18" rx="27" ry="18"/>
<text text-anchor="middle" x="207" y="-14.3" font-family="Times,serif" font-size="14.00">a</text>
</g>
<!-- 49&#45;&gt;50 -->
<g id="edge13" class="edge">
<title>49&#45;&gt;50</title>
<path fill="none" stroke="black" d="M234.65,-72.76C230.29,-64.28 224.85,-53.71 219.96,-44.2"/>
<polygon fill="black" stroke="black" points="222.99,-42.44 215.3,-35.15 216.77,-45.64 222.99,-42.44"/>
</g>
<!-- 52 -->
<g id="node15" class="node">
<title>52</title>
<ellipse fill="none" stroke="black" cx="279" cy="-18" rx="27" ry="18"/>
<text text-anchor="middle" x="279" y="-14.3" font-family="Times,serif" font-size="14.00">k</text>
</g>
<!-- 49&#45;&gt;52 -->
<g id="edge14" class="edge">
<title>49&#45;&gt;52</title>
<path fill="none" stroke="black" d="M251.35,-72.76C255.71,-64.28 261.15,-53.71 266.04,-44.2"/>
<polygon fill="black" stroke="black" points="269.23,-45.64 270.7,-35.15 263.01,-42.44 269.23,-45.64"/>
</g>
</g>
</svg>
