<?xml version="1.0" encoding="UTF-8" standalone="no"?>
<!DOCTYPE svg PUBLIC "-//W3C//DTD SVG 1.1//EN"
 "http://www.w3.org/Graphics/SVG/1.1/DTD/svg11.dtd">
<!-- Generated by graphviz version 2.49.3 (20211023.0002)
 -->
<!-- Pages: 1 -->
<svg width="723pt" height="764pt"
 viewBox="0.00 0.00 722.60 764.00" xmlns="http://www.w3.org/2000/svg" xmlns:xlink="http://www.w3.org/1999/xlink">
<g id="graph0" class="graph" transform="scale(1 1) rotate(0) translate(4 760)">
<polygon fill="white" stroke="transparent" points="-4,4 -4,-760 718.6,-760 718.6,4 -4,4"/>
<!-- 0 -->
<g id="node1" class="node">
<title>0</title>
<ellipse fill="none" stroke="black" cx="651.6" cy="-738" rx="27" ry="18"/>
<text text-anchor="middle" x="651.6" y="-734.3" font-family="Times,serif" font-size="14.00">E</text>
</g>
<!-- 1 -->
<g id="node2" class="node">
<title>1</title>
<ellipse fill="none" stroke="black" cx="615.6" cy="-666" rx="27" ry="18"/>
<text text-anchor="middle" x="615.6" y="-662.3" font-family="Times,serif" font-size="14.00">T</text>
</g>
<!-- 0&#45;&gt;1 -->
<g id="edge1" class="edge">
<title>0&#45;&gt;1</title>
<path fill="none" stroke="black" d="M643.25,-720.76C638.89,-712.28 633.45,-701.71 628.56,-692.2"/>
<polygon fill="black" stroke="black" points="631.59,-690.44 623.9,-683.15 625.36,-693.64 631.59,-690.44"/>
</g>
<!-- 54 -->
<g id="node39" class="node">
<title>54</title>
<ellipse fill="none" stroke="black" cx="687.6" cy="-666" rx="27" ry="18"/>
<text text-anchor="middle" x="687.6" y="-662.3" font-family="Times,serif" font-size="14.00">X</text>
</g>
<!-- 0&#45;&gt;54 -->
<g id="edge38" class="edge">
<title>0&#45;&gt;54</title>
<path fill="none" stroke="black" d="M659.95,-720.76C664.31,-712.28 669.74,-701.71 674.64,-692.2"/>
<polygon fill="black" stroke="black" points="677.83,-693.64 679.29,-683.15 671.61,-690.44 677.83,-693.64"/>
</g>
<!-- 2 -->
<g id="node3" class="node">
<title>2</title>
<ellipse fill="none" stroke="black" cx="543.6" cy="-594" rx="27" ry="18"/>
<text text-anchor="middle" x="543.6" y="-590.3" font-family="Times,serif" font-size="14.00">M</text>
</g>
<!-- 1&#45;&gt;2 -->
<g id="edge2" class="edge">
<title>1&#45;&gt;2</title>
<path fill="none" stroke="black" d="M601.03,-650.83C590.85,-640.94 577.07,-627.55 565.57,-616.36"/>
<polygon fill="black" stroke="black" points="568,-613.85 558.39,-609.38 563.12,-618.87 568,-613.85"/>
</g>
<!-- 51 -->
<g id="node37" class="node">
<title>51</title>
<ellipse fill="none" stroke="black" cx="615.6" cy="-594" rx="27" ry="18"/>
<text text-anchor="middle" x="615.6" y="-590.3" font-family="Times,serif" font-size="14.00">Z</text>
</g>
<!-- 1&#45;&gt;51 -->
<g id="edge36" class="edge">
<title>1&#45;&gt;51</title>
<path fill="none" stroke="black" d="M615.6,-647.7C615.6,-639.98 615.6,-630.71 615.6,-622.11"/>
<polygon fill="black" stroke="black" points="619.1,-622.1 615.6,-612.1 612.1,-622.1 619.1,-622.1"/>
</g>
<!-- 3 -->
<g id="node4" class="node">
<title>3</title>
<ellipse fill="none" stroke="black" cx="366.6" cy="-522" rx="27" ry="18"/>
<text text-anchor="middle" x="366.6" y="-518.3" font-family="Times,serif" font-size="14.00">G</text>
</g>
<!-- 2&#45;&gt;3 -->
<g id="edge3" class="edge">
<title>2&#45;&gt;3</title>
<path fill="none" stroke="black" d="M520.82,-583.99C489.75,-571.71 433.94,-549.63 398.66,-535.68"/>
<polygon fill="black" stroke="black" points="399.87,-532.4 389.29,-531.97 397.3,-538.91 399.87,-532.4"/>
</g>
<!-- 39 -->
<g id="node29" class="node">
<title>39</title>
<ellipse fill="none" stroke="black" cx="543.6" cy="-522" rx="27" ry="18"/>
<text text-anchor="middle" x="543.6" y="-518.3" font-family="Times,serif" font-size="14.00">Y</text>
</g>
<!-- 2&#45;&gt;39 -->
<g id="edge28" class="edge">
<title>2&#45;&gt;39</title>
<path fill="none" stroke="black" d="M543.6,-575.7C543.6,-567.98 543.6,-558.71 543.6,-550.11"/>
<polygon fill="black" stroke="black" points="547.1,-550.1 543.6,-540.1 540.1,-550.1 547.1,-550.1"/>
</g>
<!-- 4 -->
<g id="node5" class="node">
<title>4</title>
<ellipse fill="none" stroke="black" cx="231.6" cy="-450" rx="45.49" ry="18"/>
<text text-anchor="middle" x="231.6" y="-446.3" font-family="Times,serif" font-size="14.00">LPAREN</text>
</g>
<!-- 3&#45;&gt;4 -->
<g id="edge4" class="edge">
<title>3&#45;&gt;4</title>
<path fill="none" stroke="black" d="M345.8,-510.22C324.94,-499.4 292.42,-482.54 267.41,-469.57"/>
<polygon fill="black" stroke="black" points="268.72,-466.31 258.23,-464.81 265.5,-472.52 268.72,-466.31"/>
</g>
<!-- 6 -->
<g id="node6" class="node">
<title>6</title>
<ellipse fill="none" stroke="black" cx="321.6" cy="-450" rx="27" ry="18"/>
<text text-anchor="middle" x="321.6" y="-446.3" font-family="Times,serif" font-size="14.00">E</text>
</g>
<!-- 3&#45;&gt;6 -->
<g id="edge5" class="edge">
<title>3&#45;&gt;6</title>
<path fill="none" stroke="black" d="M356.39,-505.12C350.75,-496.34 343.62,-485.26 337.29,-475.42"/>
<polygon fill="black" stroke="black" points="340.12,-473.34 331.77,-466.82 334.23,-477.13 340.12,-473.34"/>
</g>
<!-- 37 -->
<g id="node28" class="node">
<title>37</title>
<ellipse fill="none" stroke="black" cx="411.6" cy="-450" rx="45.49" ry="18"/>
<text text-anchor="middle" x="411.6" y="-446.3" font-family="Times,serif" font-size="14.00">RPAREN</text>
</g>
<!-- 3&#45;&gt;37 -->
<g id="edge27" class="edge">
<title>3&#45;&gt;37</title>
<path fill="none" stroke="black" d="M376.81,-505.12C382.29,-496.59 389.17,-485.89 395.36,-476.25"/>
<polygon fill="black" stroke="black" points="398.34,-478.1 400.8,-467.8 392.45,-474.32 398.34,-478.1"/>
</g>
<!-- 7 -->
<g id="node7" class="node">
<title>7</title>
<ellipse fill="none" stroke="black" cx="285.6" cy="-378" rx="27" ry="18"/>
<text text-anchor="middle" x="285.6" y="-374.3" font-family="Times,serif" font-size="14.00">T</text>
</g>
<!-- 6&#45;&gt;7 -->
<g id="edge6" class="edge">
<title>6&#45;&gt;7</title>
<path fill="none" stroke="black" d="M313.25,-432.76C308.89,-424.28 303.45,-413.71 298.56,-404.2"/>
<polygon fill="black" stroke="black" points="301.59,-402.44 293.9,-395.15 295.36,-405.64 301.59,-402.44"/>
</g>
<!-- 34 -->
<g id="node26" class="node">
<title>34</title>
<ellipse fill="none" stroke="black" cx="357.6" cy="-378" rx="27" ry="18"/>
<text text-anchor="middle" x="357.6" y="-374.3" font-family="Times,serif" font-size="14.00">X</text>
</g>
<!-- 6&#45;&gt;34 -->
<g id="edge25" class="edge">
<title>6&#45;&gt;34</title>
<path fill="none" stroke="black" d="M329.95,-432.76C334.31,-424.28 339.74,-413.71 344.64,-404.2"/>
<polygon fill="black" stroke="black" points="347.83,-405.64 349.29,-395.15 341.61,-402.44 347.83,-405.64"/>
</g>
<!-- 8 -->
<g id="node8" class="node">
<title>8</title>
<ellipse fill="none" stroke="black" cx="176.6" cy="-306" rx="27" ry="18"/>
<text text-anchor="middle" x="176.6" y="-302.3" font-family="Times,serif" font-size="14.00">M</text>
</g>
<!-- 7&#45;&gt;8 -->
<g id="edge7" class="edge">
<title>7&#45;&gt;8</title>
<path fill="none" stroke="black" d="M266.61,-364.81C249.26,-353.67 223.41,-337.06 203.85,-324.5"/>
<polygon fill="black" stroke="black" points="205.67,-321.51 195.37,-319.05 201.89,-327.4 205.67,-321.51"/>
</g>
<!-- 18 -->
<g id="node15" class="node">
<title>18</title>
<ellipse fill="none" stroke="black" cx="285.6" cy="-306" rx="27" ry="18"/>
<text text-anchor="middle" x="285.6" y="-302.3" font-family="Times,serif" font-size="14.00">Z</text>
</g>
<!-- 7&#45;&gt;18 -->
<g id="edge14" class="edge">
<title>7&#45;&gt;18</title>
<path fill="none" stroke="black" d="M285.6,-359.7C285.6,-351.98 285.6,-342.71 285.6,-334.11"/>
<polygon fill="black" stroke="black" points="289.1,-334.1 285.6,-324.1 282.1,-334.1 289.1,-334.1"/>
</g>
<!-- 9 -->
<g id="node9" class="node">
<title>9</title>
<ellipse fill="none" stroke="black" cx="102.6" cy="-234" rx="27" ry="18"/>
<text text-anchor="middle" x="102.6" y="-230.3" font-family="Times,serif" font-size="14.00">G</text>
</g>
<!-- 8&#45;&gt;9 -->
<g id="edge8" class="edge">
<title>8&#45;&gt;9</title>
<path fill="none" stroke="black" d="M161.62,-290.83C151.09,-280.87 136.82,-267.37 124.94,-256.14"/>
<polygon fill="black" stroke="black" points="127.22,-253.47 117.55,-249.14 122.41,-258.56 127.22,-253.47"/>
</g>
<!-- 15 -->
<g id="node13" class="node">
<title>15</title>
<ellipse fill="none" stroke="black" cx="176.6" cy="-234" rx="27" ry="18"/>
<text text-anchor="middle" x="176.6" y="-230.3" font-family="Times,serif" font-size="14.00">Y</text>
</g>
<!-- 8&#45;&gt;15 -->
<g id="edge12" class="edge">
<title>8&#45;&gt;15</title>
<path fill="none" stroke="black" d="M176.6,-287.7C176.6,-279.98 176.6,-270.71 176.6,-262.11"/>
<polygon fill="black" stroke="black" points="180.1,-262.1 176.6,-252.1 173.1,-262.1 180.1,-262.1"/>
</g>
<!-- 10 -->
<g id="node10" class="node">
<title>10</title>
<ellipse fill="none" stroke="black" cx="28.6" cy="-162" rx="28.7" ry="18"/>
<text text-anchor="middle" x="28.6" y="-158.3" font-family="Times,serif" font-size="14.00">VAR</text>
</g>
<!-- 9&#45;&gt;10 -->
<g id="edge9" class="edge">
<title>9&#45;&gt;10</title>
<path fill="none" stroke="black" d="M87.62,-218.83C77.16,-208.94 63,-195.55 51.18,-184.36"/>
<polygon fill="black" stroke="black" points="53.47,-181.71 43.8,-177.38 48.66,-186.8 53.47,-181.71"/>
</g>
<!-- 12 -->
<g id="node11" class="node">
<title>12</title>
<ellipse fill="none" stroke="black" cx="102.6" cy="-162" rx="27" ry="18"/>
<text text-anchor="middle" x="102.6" y="-158.3" font-family="Times,serif" font-size="14.00">K</text>
</g>
<!-- 9&#45;&gt;12 -->
<g id="edge10" class="edge">
<title>9&#45;&gt;12</title>
<path fill="none" stroke="black" d="M102.6,-215.7C102.6,-207.98 102.6,-198.71 102.6,-190.11"/>
<polygon fill="black" stroke="black" points="106.1,-190.1 102.6,-180.1 99.1,-190.1 106.1,-190.1"/>
</g>
<!-- 13 -->
<g id="node12" class="node">
<title>13</title>
<ellipse fill="none" stroke="black" cx="101.6" cy="-90" rx="27" ry="18"/>
<text text-anchor="middle" x="101.6" y="-86.3" font-family="Times,serif" font-size="14.00">EPS</text>
</g>
<!-- 12&#45;&gt;13 -->
<g id="edge11" class="edge">
<title>12&#45;&gt;13</title>
<path fill="none" stroke="black" d="M102.35,-143.7C102.24,-135.98 102.11,-126.71 101.98,-118.11"/>
<polygon fill="black" stroke="black" points="105.48,-118.05 101.84,-108.1 98.49,-118.15 105.48,-118.05"/>
</g>
<!-- 16 -->
<g id="node14" class="node">
<title>16</title>
<ellipse fill="none" stroke="black" cx="176.6" cy="-162" rx="27" ry="18"/>
<text text-anchor="middle" x="176.6" y="-158.3" font-family="Times,serif" font-size="14.00">EPS</text>
</g>
<!-- 15&#45;&gt;16 -->
<g id="edge13" class="edge">
<title>15&#45;&gt;16</title>
<path fill="none" stroke="black" d="M176.6,-215.7C176.6,-207.98 176.6,-198.71 176.6,-190.11"/>
<polygon fill="black" stroke="black" points="180.1,-190.1 176.6,-180.1 173.1,-190.1 180.1,-190.1"/>
</g>
<!-- 19 -->
<g id="node16" class="node">
<title>19</title>
<ellipse fill="none" stroke="black" cx="249.6" cy="-234" rx="27" ry="18"/>
<text text-anchor="middle" x="249.6" y="-230.3" font-family="Times,serif" font-size="14.00">M</text>
</g>
<!-- 18&#45;&gt;19 -->
<g id="edge15" class="edge">
<title>18&#45;&gt;19</title>
<path fill="none" stroke="black" d="M277.25,-288.76C272.89,-280.28 267.45,-269.71 262.56,-260.2"/>
<polygon fill="black" stroke="black" points="265.59,-258.44 257.9,-251.15 259.36,-261.64 265.59,-258.44"/>
</g>
<!-- 29 -->
<g id="node23" class="node">
<title>29</title>
<ellipse fill="none" stroke="black" cx="321.6" cy="-234" rx="27" ry="18"/>
<text text-anchor="middle" x="321.6" y="-230.3" font-family="Times,serif" font-size="14.00">OR</text>
</g>
<!-- 18&#45;&gt;29 -->
<g id="edge22" class="edge">
<title>18&#45;&gt;29</title>
<path fill="none" stroke="black" d="M293.95,-288.76C298.31,-280.28 303.74,-269.71 308.64,-260.2"/>
<polygon fill="black" stroke="black" points="311.83,-261.64 313.29,-251.15 305.61,-258.44 311.83,-261.64"/>
</g>
<!-- 31 -->
<g id="node24" class="node">
<title>31</title>
<ellipse fill="none" stroke="black" cx="393.6" cy="-234" rx="27" ry="18"/>
<text text-anchor="middle" x="393.6" y="-230.3" font-family="Times,serif" font-size="14.00">Z</text>
</g>
<!-- 18&#45;&gt;31 -->
<g id="edge23" class="edge">
<title>18&#45;&gt;31</title>
<path fill="none" stroke="black" d="M304.41,-292.81C321.6,-281.67 347.22,-265.06 366.59,-252.5"/>
<polygon fill="black" stroke="black" points="368.51,-255.43 375,-247.05 364.71,-249.56 368.51,-255.43"/>
</g>
<!-- 20 -->
<g id="node17" class="node">
<title>20</title>
<ellipse fill="none" stroke="black" cx="249.6" cy="-162" rx="27" ry="18"/>
<text text-anchor="middle" x="249.6" y="-158.3" font-family="Times,serif" font-size="14.00">G</text>
</g>
<!-- 19&#45;&gt;20 -->
<g id="edge16" class="edge">
<title>19&#45;&gt;20</title>
<path fill="none" stroke="black" d="M249.6,-215.7C249.6,-207.98 249.6,-198.71 249.6,-190.11"/>
<polygon fill="black" stroke="black" points="253.1,-190.1 249.6,-180.1 246.1,-190.1 253.1,-190.1"/>
</g>
<!-- 26 -->
<g id="node21" class="node">
<title>26</title>
<ellipse fill="none" stroke="black" cx="321.6" cy="-162" rx="27" ry="18"/>
<text text-anchor="middle" x="321.6" y="-158.3" font-family="Times,serif" font-size="14.00">Y</text>
</g>
<!-- 19&#45;&gt;26 -->
<g id="edge20" class="edge">
<title>19&#45;&gt;26</title>
<path fill="none" stroke="black" d="M264.17,-218.83C274.35,-208.94 288.12,-195.55 299.63,-184.36"/>
<polygon fill="black" stroke="black" points="302.07,-186.87 306.8,-177.38 297.19,-181.85 302.07,-186.87"/>
</g>
<!-- 21 -->
<g id="node18" class="node">
<title>21</title>
<ellipse fill="none" stroke="black" cx="175.6" cy="-90" rx="28.7" ry="18"/>
<text text-anchor="middle" x="175.6" y="-86.3" font-family="Times,serif" font-size="14.00">VAR</text>
</g>
<!-- 20&#45;&gt;21 -->
<g id="edge17" class="edge">
<title>20&#45;&gt;21</title>
<path fill="none" stroke="black" d="M234.62,-146.83C224.16,-136.94 210,-123.55 198.18,-112.36"/>
<polygon fill="black" stroke="black" points="200.47,-109.71 190.8,-105.38 195.66,-114.8 200.47,-109.71"/>
</g>
<!-- 23 -->
<g id="node19" class="node">
<title>23</title>
<ellipse fill="none" stroke="black" cx="249.6" cy="-90" rx="27" ry="18"/>
<text text-anchor="middle" x="249.6" y="-86.3" font-family="Times,serif" font-size="14.00">K</text>
</g>
<!-- 20&#45;&gt;23 -->
<g id="edge18" class="edge">
<title>20&#45;&gt;23</title>
<path fill="none" stroke="black" d="M249.6,-143.7C249.6,-135.98 249.6,-126.71 249.6,-118.11"/>
<polygon fill="black" stroke="black" points="253.1,-118.1 249.6,-108.1 246.1,-118.1 253.1,-118.1"/>
</g>
<!-- 24 -->
<g id="node20" class="node">
<title>24</title>
<ellipse fill="none" stroke="black" cx="249.6" cy="-18" rx="27" ry="18"/>
<text text-anchor="middle" x="249.6" y="-14.3" font-family="Times,serif" font-size="14.00">EPS</text>
</g>
<!-- 23&#45;&gt;24 -->
<g id="edge19" class="edge">
<title>23&#45;&gt;24</title>
<path fill="none" stroke="black" d="M249.6,-71.7C249.6,-63.98 249.6,-54.71 249.6,-46.11"/>
<polygon fill="black" stroke="black" points="253.1,-46.1 249.6,-36.1 246.1,-46.1 253.1,-46.1"/>
</g>
<!-- 27 -->
<g id="node22" class="node">
<title>27</title>
<ellipse fill="none" stroke="black" cx="321.6" cy="-90" rx="27" ry="18"/>
<text text-anchor="middle" x="321.6" y="-86.3" font-family="Times,serif" font-size="14.00">EPS</text>
</g>
<!-- 26&#45;&gt;27 -->
<g id="edge21" class="edge">
<title>26&#45;&gt;27</title>
<path fill="none" stroke="black" d="M321.6,-143.7C321.6,-135.98 321.6,-126.71 321.6,-118.11"/>
<polygon fill="black" stroke="black" points="325.1,-118.1 321.6,-108.1 318.1,-118.1 325.1,-118.1"/>
</g>
<!-- 32 -->
<g id="node25" class="node">
<title>32</title>
<ellipse fill="none" stroke="black" cx="393.6" cy="-162" rx="27" ry="18"/>
<text text-anchor="middle" x="393.6" y="-158.3" font-family="Times,serif" font-size="14.00">EPS</text>
</g>
<!-- 31&#45;&gt;32 -->
<g id="edge24" class="edge">
<title>31&#45;&gt;32</title>
<path fill="none" stroke="black" d="M393.6,-215.7C393.6,-207.98 393.6,-198.71 393.6,-190.11"/>
<polygon fill="black" stroke="black" points="397.1,-190.1 393.6,-180.1 390.1,-190.1 397.1,-190.1"/>
</g>
<!-- 35 -->
<g id="node27" class="node">
<title>35</title>
<ellipse fill="none" stroke="black" cx="357.6" cy="-306" rx="27" ry="18"/>
<text text-anchor="middle" x="357.6" y="-302.3" font-family="Times,serif" font-size="14.00">EPS</text>
</g>
<!-- 34&#45;&gt;35 -->
<g id="edge26" class="edge">
<title>34&#45;&gt;35</title>
<path fill="none" stroke="black" d="M357.6,-359.7C357.6,-351.98 357.6,-342.71 357.6,-334.11"/>
<polygon fill="black" stroke="black" points="361.1,-334.1 357.6,-324.1 354.1,-334.1 361.1,-334.1"/>
</g>
<!-- 40 -->
<g id="node30" class="node">
<title>40</title>
<ellipse fill="none" stroke="black" cx="505.6" cy="-450" rx="30.59" ry="18"/>
<text text-anchor="middle" x="505.6" y="-446.3" font-family="Times,serif" font-size="14.00">AND</text>
</g>
<!-- 39&#45;&gt;40 -->
<g id="edge29" class="edge">
<title>39&#45;&gt;40</title>
<path fill="none" stroke="black" d="M534.78,-504.76C530.25,-496.4 524.61,-486.02 519.5,-476.61"/>
<polygon fill="black" stroke="black" points="522.47,-474.75 514.63,-467.63 516.32,-478.09 522.47,-474.75"/>
</g>
<!-- 42 -->
<g id="node31" class="node">
<title>42</title>
<ellipse fill="none" stroke="black" cx="581.6" cy="-450" rx="27" ry="18"/>
<text text-anchor="middle" x="581.6" y="-446.3" font-family="Times,serif" font-size="14.00">G</text>
</g>
<!-- 39&#45;&gt;42 -->
<g id="edge30" class="edge">
<title>39&#45;&gt;42</title>
<path fill="none" stroke="black" d="M552.41,-504.76C557.02,-496.28 562.75,-485.71 567.92,-476.2"/>
<polygon fill="black" stroke="black" points="571.14,-477.61 572.83,-467.15 564.98,-474.27 571.14,-477.61"/>
</g>
<!-- 48 -->
<g id="node35" class="node">
<title>48</title>
<ellipse fill="none" stroke="black" cx="653.6" cy="-450" rx="27" ry="18"/>
<text text-anchor="middle" x="653.6" y="-446.3" font-family="Times,serif" font-size="14.00">Y</text>
</g>
<!-- 39&#45;&gt;48 -->
<g id="edge34" class="edge">
<title>39&#45;&gt;48</title>
<path fill="none" stroke="black" d="M562.76,-508.81C580.27,-497.67 606.36,-481.06 626.09,-468.5"/>
<polygon fill="black" stroke="black" points="628.1,-471.37 634.66,-463.05 624.34,-465.47 628.1,-471.37"/>
</g>
<!-- 43 -->
<g id="node32" class="node">
<title>43</title>
<ellipse fill="none" stroke="black" cx="507.6" cy="-378" rx="28.7" ry="18"/>
<text text-anchor="middle" x="507.6" y="-374.3" font-family="Times,serif" font-size="14.00">VAR</text>
</g>
<!-- 42&#45;&gt;43 -->
<g id="edge31" class="edge">
<title>42&#45;&gt;43</title>
<path fill="none" stroke="black" d="M566.62,-434.83C556.16,-424.94 542,-411.55 530.18,-400.36"/>
<polygon fill="black" stroke="black" points="532.47,-397.71 522.8,-393.38 527.66,-402.8 532.47,-397.71"/>
</g>
<!-- 45 -->
<g id="node33" class="node">
<title>45</title>
<ellipse fill="none" stroke="black" cx="581.6" cy="-378" rx="27" ry="18"/>
<text text-anchor="middle" x="581.6" y="-374.3" font-family="Times,serif" font-size="14.00">K</text>
</g>
<!-- 42&#45;&gt;45 -->
<g id="edge32" class="edge">
<title>42&#45;&gt;45</title>
<path fill="none" stroke="black" d="M581.6,-431.7C581.6,-423.98 581.6,-414.71 581.6,-406.11"/>
<polygon fill="black" stroke="black" points="585.1,-406.1 581.6,-396.1 578.1,-406.1 585.1,-406.1"/>
</g>
<!-- 46 -->
<g id="node34" class="node">
<title>46</title>
<ellipse fill="none" stroke="black" cx="581.6" cy="-306" rx="27" ry="18"/>
<text text-anchor="middle" x="581.6" y="-302.3" font-family="Times,serif" font-size="14.00">EPS</text>
</g>
<!-- 45&#45;&gt;46 -->
<g id="edge33" class="edge">
<title>45&#45;&gt;46</title>
<path fill="none" stroke="black" d="M581.6,-359.7C581.6,-351.98 581.6,-342.71 581.6,-334.11"/>
<polygon fill="black" stroke="black" points="585.1,-334.1 581.6,-324.1 578.1,-334.1 585.1,-334.1"/>
</g>
<!-- 49 -->
<g id="node36" class="node">
<title>49</title>
<ellipse fill="none" stroke="black" cx="653.6" cy="-378" rx="27" ry="18"/>
<text text-anchor="middle" x="653.6" y="-374.3" font-family="Times,serif" font-size="14.00">EPS</text>
</g>
<!-- 48&#45;&gt;49 -->
<g id="edge35" class="edge">
<title>48&#45;&gt;49</title>
<path fill="none" stroke="black" d="M653.6,-431.7C653.6,-423.98 653.6,-414.71 653.6,-406.11"/>
<polygon fill="black" stroke="black" points="657.1,-406.1 653.6,-396.1 650.1,-406.1 657.1,-406.1"/>
</g>
<!-- 52 -->
<g id="node38" class="node">
<title>52</title>
<ellipse fill="none" stroke="black" cx="615.6" cy="-522" rx="27" ry="18"/>
<text text-anchor="middle" x="615.6" y="-518.3" font-family="Times,serif" font-size="14.00">EPS</text>
</g>
<!-- 51&#45;&gt;52 -->
<g id="edge37" class="edge">
<title>51&#45;&gt;52</title>
<path fill="none" stroke="black" d="M615.6,-575.7C615.6,-567.98 615.6,-558.71 615.6,-550.11"/>
<polygon fill="black" stroke="black" points="619.1,-550.1 615.6,-540.1 612.1,-550.1 619.1,-550.1"/>
</g>
<!-- 55 -->
<g id="node40" class="node">
<title>55</title>
<ellipse fill="none" stroke="black" cx="687.6" cy="-594" rx="27" ry="18"/>
<text text-anchor="middle" x="687.6" y="-590.3" font-family="Times,serif" font-size="14.00">EPS</text>
</g>
<!-- 54&#45;&gt;55 -->
<g id="edge39" class="edge">
<title>54&#45;&gt;55</title>
<path fill="none" stroke="black" d="M687.6,-647.7C687.6,-639.98 687.6,-630.71 687.6,-622.11"/>
<polygon fill="black" stroke="black" points="691.1,-622.1 687.6,-612.1 684.1,-622.1 691.1,-622.1"/>
</g>
</g>
</svg>
